<svg xmlns="http://www.w3.org/2000/svg" viewBox="0 0 1280 640" width="1280" height="640" role="img" aria-labelledby="t d">
  <title id="t">AI Audit Mandate</title>
  <desc id="d">AI Audit Mandate. A due-diligence and remediation mandate for software that no human reviews. 119 checks, two volumes, three tracks.</desc>
  <defs>
    <linearGradient id="bg" x1="0" y1="0" x2="0" y2="640" gradientUnits="userSpaceOnUse">
      <stop offset="0" stop-color="#111C2E"/><stop offset="1" stop-color="#0A101C"/>
    </linearGradient>
    <linearGradient id="plate" x1="0" y1="180" x2="0" y2="470" gradientUnits="userSpaceOnUse">
      <stop offset="0" stop-color="#233246"/><stop offset="1" stop-color="#0F172A"/>
    </linearGradient>
    <linearGradient id="bars" x1="0" y1="205" x2="0" y2="470" gradientUnits="userSpaceOnUse">
      <stop offset="0" stop-color="#34D399"/><stop offset="1" stop-color="#10B981"/>
    </linearGradient>
    <path id="shield" d="M244 180 L371 229 V326 C371 396 314 445 244 469 C174 445 117 396 117 326 V229 Z"/>
    <clipPath id="inside"><use href="#shield"/></clipPath>
  </defs>
  <rect width="1280" height="640" fill="url(#bg)"/>
  <rect x="0" y="0" width="1280" height="4" fill="#10B981" opacity="0.85"/>
  <use href="#shield" fill="url(#plate)"/>
  <g clip-path="url(#inside)">
    <rect x="180" y="221" width="24" height="227" rx="12" fill="url(#bars)"/>
    <rect x="232" y="221" width="24" height="238" rx="12" fill="url(#bars)"/>
    <rect x="284" y="221" width="24" height="227" rx="12" fill="url(#bars)"/>
    <rect x="105" y="278" width="278" height="16" fill="#0F172A" opacity="0.92"/>
    <rect x="105" y="348" width="278" height="16" fill="#0F172A" opacity="0.92"/>
  </g>
  <use href="#shield" fill="none" stroke="#3E5068" stroke-width="9"/>
  <path d="M509.45 246L506.32 236.97L486.34 236.97L483.18 246L470.33 246L488.69 196.43L503.93 196.43L522.29 246L509.45 246M496.33 208.05L489.52 227.77L503.10 227.77 M528.87 246L528.87 196.43L541.65 196.43L541.65 246 M611.05 246L607.93 236.97L587.94 236.97L584.78 246L571.93 246L590.29 196.43L605.54 196.43L623.90 246L611.05 246M597.93 208.05L591.13 227.77L604.71 227.77 M629.54 231.52L629.54 208.81L641.49 208.81L641.49 212.53Q641.49 215.55 641.46 220.12Q641.43 224.68 641.43 226.21Q641.43 230.69 641.66 232.67Q641.89 234.64 642.46 235.54Q643.19 236.70 644.37 237.33Q645.54 237.96 647.07 237.96Q650.79 237.96 652.92 235.11Q655.04 232.25 655.04 227.17L655.04 208.81L666.93 208.81L666.93 246L655.04 246L655.04 240.62Q652.35 243.88 649.35 245.42Q646.34 246.96 642.72 246.96Q636.28 246.96 632.91 243.01Q629.54 239.06 629.54 231.52 M703.65 214.26L703.65 194.34L715.60 194.34L715.60 246L703.65 246L703.65 240.62Q701.19 243.91 698.24 245.44Q695.28 246.96 691.40 246.96Q684.53 246.96 680.11 241.50Q675.69 236.04 675.69 227.44Q675.69 218.84 680.11 213.38Q684.53 207.92 691.40 207.92Q695.25 207.92 698.22 209.46Q701.19 211 703.65 214.26M695.81 238.33Q699.63 238.33 701.64 235.54Q703.65 232.75 703.65 227.44Q703.65 222.13 701.64 219.34Q699.63 216.55 695.81 216.55Q692.03 216.55 690.02 219.34Q688.01 222.13 688.01 227.44Q688.01 232.75 690.02 235.54Q692.03 238.33 695.81 238.33 M727.03 246L727.03 208.81L738.91 208.81L738.91 246L727.03 246M727.03 204.03L727.03 194.34L738.91 194.34L738.91 204.03 M751.43 198.25L763.32 198.25L763.32 208.81L775.57 208.81L775.57 217.31L763.32 217.31L763.32 233.08Q763.32 235.67 764.35 236.59Q765.38 237.50 768.43 237.50L774.54 237.50L774.54 246L764.35 246Q757.31 246 754.37 243.06Q751.43 240.12 751.43 233.08L751.43 217.31L745.52 217.31L745.52 208.81L751.43 208.81 M807.04 246L807.04 196.43L823.31 196.43L834.60 222.96L845.96 196.43L862.20 196.43L862.20 246L850.11 246L850.11 209.74L838.69 236.47L830.59 236.47L819.16 209.74L819.16 246 M897.03 229.27L890.85 229.27Q887.13 229.27 885.25 230.53Q883.38 231.79 883.38 234.25Q883.38 236.50 884.89 237.78Q886.40 239.06 889.09 239.06Q892.44 239.06 894.73 236.65Q897.03 234.25 897.03 230.63L897.03 229.27M909.01 224.78L909.01 246L897.03 246L897.03 240.49Q894.63 243.88 891.65 245.42Q888.66 246.96 884.38 246.96Q878.60 246.96 875 243.59Q871.39 240.22 871.39 234.84Q871.39 228.30 875.89 225.25Q880.39 222.19 890.02 222.19L897.03 222.19L897.03 221.26Q897.03 218.44 894.80 217.13Q892.58 215.82 887.86 215.82Q884.04 215.82 880.76 216.58Q877.47 217.35 874.65 218.87L874.65 209.81Q878.46 208.88 882.32 208.40Q886.17 207.92 890.02 207.92Q900.08 207.92 904.55 211.88Q909.01 215.85 909.01 224.78 M957.46 223.36L957.46 246L945.50 246L945.50 242.31L945.50 228.67Q945.50 223.85 945.29 222.03Q945.07 220.20 944.54 219.34Q943.84 218.18 942.65 217.53Q941.45 216.88 939.92 216.88Q936.21 216.88 934.08 219.75Q931.96 222.63 931.96 227.71L931.96 246L920.07 246L920.07 208.81L931.96 208.81L931.96 214.26Q934.64 211 937.67 209.46Q940.69 207.92 944.34 207.92Q950.78 207.92 954.12 211.87Q957.46 215.82 957.46 223.36 M993.78 214.26L993.78 194.34L1005.73 194.34L1005.73 246L993.78 246L993.78 240.62Q991.32 243.91 988.37 245.44Q985.41 246.96 981.53 246.96Q974.65 246.96 970.24 241.50Q965.82 236.04 965.82 227.44Q965.82 218.84 970.24 213.38Q974.65 207.92 981.53 207.92Q985.38 207.92 988.35 209.46Q991.32 211 993.78 214.26M985.94 238.33Q989.76 238.33 991.77 235.54Q993.78 232.75 993.78 227.44Q993.78 222.13 991.77 219.34Q989.76 216.55 985.94 216.55Q982.16 216.55 980.15 219.34Q978.14 222.13 978.14 227.44Q978.14 232.75 980.15 235.54Q982.16 238.33 985.94 238.33 M1040 229.27L1033.82 229.27Q1030.10 229.27 1028.23 230.53Q1026.35 231.79 1026.35 234.25Q1026.35 236.50 1027.86 237.78Q1029.37 239.06 1032.06 239.06Q1035.42 239.06 1037.71 236.65Q1040 234.25 1040 230.63L1040 229.27M1051.98 224.78L1051.98 246L1040 246L1040 240.49Q1037.61 243.88 1034.62 245.42Q1031.63 246.96 1027.35 246.96Q1021.57 246.96 1017.97 243.59Q1014.37 240.22 1014.37 234.84Q1014.37 228.30 1018.86 225.25Q1023.36 222.19 1032.99 222.19L1040 222.19L1040 221.26Q1040 218.44 1037.77 217.13Q1035.55 215.82 1030.83 215.82Q1027.02 215.82 1023.73 216.58Q1020.44 217.35 1017.62 218.87L1017.62 209.81Q1021.44 208.88 1025.29 208.40Q1029.14 207.92 1032.99 207.92Q1043.05 207.92 1047.52 211.88Q1051.98 215.85 1051.98 224.78 M1064.14 198.25L1076.02 198.25L1076.02 208.81L1088.28 208.81L1088.28 217.31L1076.02 217.31L1076.02 233.08Q1076.02 235.67 1077.05 236.59Q1078.08 237.50 1081.14 237.50L1087.25 237.50L1087.25 246L1077.05 246Q1070.01 246 1067.08 243.06Q1064.14 240.12 1064.14 233.08L1064.14 217.31L1058.23 217.31L1058.23 208.81L1064.14 208.81 M1132.67 227.31L1132.67 230.69L1104.88 230.69Q1105.31 234.88 1107.90 236.97Q1110.49 239.06 1115.14 239.06Q1118.89 239.06 1122.82 237.95Q1126.76 236.84 1130.91 234.58L1130.91 243.74Q1126.69 245.34 1122.47 246.15Q1118.26 246.96 1114.04 246.96Q1103.95 246.96 1098.35 241.83Q1092.76 236.70 1092.76 227.44Q1092.76 218.34 1098.25 213.13Q1103.75 207.92 1113.38 207.92Q1122.14 207.92 1127.41 213.20Q1132.67 218.47 1132.67 227.31M1105.01 223.36L1120.45 223.36Q1120.45 219.97 1118.47 217.89Q1116.50 215.82 1113.31 215.82Q1109.86 215.82 1107.70 217.76Q1105.54 219.70 1105.01 223.36" fill="#F1F5F9"/>
  <path d="M484.28 299.93L480.25 289.04L476.24 299.93L484.28 299.93M470.23 308L478.58 286.13L481.94 286.13L490.27 308L487.20 308L485.21 302.39L475.35 302.39L473.35 308 M513.68 294.08L513.68 285.21L516.38 285.21L516.38 308L513.68 308L513.68 305.54Q512.83 307 511.54 307.71Q510.24 308.42 508.42 308.42Q505.45 308.42 503.58 306.05Q501.71 303.68 501.71 299.81Q501.71 295.94 503.58 293.57Q505.45 291.20 508.42 291.20Q510.24 291.20 511.54 291.91Q512.83 292.62 513.68 294.08M504.50 299.81Q504.50 302.79 505.72 304.48Q506.94 306.17 509.08 306.17Q511.22 306.17 512.45 304.48Q513.68 302.79 513.68 299.81Q513.68 296.84 512.45 295.15Q511.22 293.45 509.08 293.45Q506.94 293.45 505.72 295.15Q504.50 296.84 504.50 299.81 M521.65 301.53L521.65 291.59L524.35 291.59L524.35 301.42Q524.35 303.75 525.25 304.92Q526.16 306.08 527.98 306.08Q530.16 306.08 531.43 304.69Q532.70 303.30 532.70 300.90L532.70 291.59L535.39 291.59L535.39 308L532.70 308L532.70 305.48Q531.71 306.97 530.42 307.70Q529.12 308.42 527.41 308.42Q524.58 308.42 523.12 306.67Q521.65 304.91 521.65 301.53M528.43 291.20 M554.98 299.12L554.98 300.44L542.58 300.44Q542.76 303.22 544.26 304.68Q545.76 306.14 548.44 306.14Q550 306.14 551.45 305.76Q552.91 305.38 554.35 304.62L554.35 307.17Q552.90 307.78 551.37 308.10Q549.85 308.42 548.28 308.42Q544.36 308.42 542.06 306.14Q539.77 303.85 539.77 299.96Q539.77 295.93 541.95 293.56Q544.12 291.20 547.81 291.20Q551.12 291.20 553.05 293.33Q554.98 295.46 554.98 299.12M542.67 298.35L552.28 298.33Q552.25 296.12 551.04 294.80Q549.83 293.48 547.84 293.48Q545.59 293.48 544.23 294.76Q542.88 296.03 542.67 298.35 M558.04 300.98L558.04 298.58L565.93 298.58L565.93 300.98 M581.02 294.08L581.02 285.21L583.72 285.21L583.72 308L581.02 308L581.02 305.54Q580.17 307 578.87 307.71Q577.58 308.42 575.76 308.42Q572.79 308.42 570.92 306.05Q569.05 303.68 569.05 299.81Q569.05 295.94 570.92 293.57Q572.79 291.20 575.76 291.20Q577.58 291.20 578.87 291.91Q580.17 292.62 581.02 294.08M571.84 299.81Q571.84 302.79 573.06 304.48Q574.28 306.17 576.42 306.17Q578.56 306.17 579.79 304.48Q581.02 302.79 581.02 299.81Q581.02 296.84 579.79 295.15Q578.56 293.45 576.42 293.45Q574.28 293.45 573.06 295.15Q571.84 296.84 571.84 299.81 M589.27 308L589.27 291.59L591.96 291.59L591.96 308L589.27 308M589.27 288.62L589.27 285.21L591.96 285.21L591.96 288.62 M597.60 308L597.60 285.21L600.30 285.21L600.30 308 M605.94 308L605.94 291.59L608.63 291.59L608.63 308L605.94 308M605.94 288.62L605.94 285.21L608.63 285.21L608.63 288.62 M625.07 299.61Q625.07 296.68 623.86 295.07Q622.65 293.45 620.47 293.45Q618.30 293.45 617.09 295.07Q615.88 296.68 615.88 299.61Q615.88 302.52 617.09 304.13Q618.30 305.74 620.47 305.74Q622.65 305.74 623.86 304.13Q625.07 302.52 625.07 299.61M627.76 291.59L627.76 305.96Q627.76 310.15 625.90 312.20Q624.04 314.24 620.21 314.24Q618.78 314.24 617.52 314.03Q616.26 313.82 615.08 313.38L615.08 310.75Q616.26 311.40 617.42 311.71Q618.58 312.01 619.78 312.01Q622.43 312.01 623.75 310.63Q625.07 309.25 625.07 306.45L625.07 305.11Q624.23 306.56 622.93 307.28Q621.63 308 619.81 308Q616.79 308 614.95 305.70Q613.10 303.40 613.10 299.61Q613.10 295.80 614.95 293.50Q616.79 291.20 619.81 291.20Q621.63 291.20 622.93 291.92Q624.23 292.63 625.07 294.08L625.07 291.59 M647.35 299.12L647.35 300.44L634.96 300.44Q635.13 303.22 636.63 304.68Q638.13 306.14 640.82 306.14Q642.37 306.14 643.83 305.76Q645.28 305.38 646.72 304.62L646.72 307.17Q645.27 307.78 643.75 308.10Q642.22 308.42 640.65 308.42Q636.73 308.42 634.44 306.14Q632.14 303.85 632.14 299.96Q632.14 295.93 634.32 293.56Q636.49 291.20 640.19 291.20Q643.50 291.20 645.42 293.33Q647.35 295.46 647.35 299.12M635.04 298.35L644.65 298.33Q644.62 296.12 643.42 294.80Q642.21 293.48 640.21 293.48Q637.96 293.48 636.60 294.76Q635.25 296.03 635.04 298.35 M665.41 298.10L665.41 308L662.71 308L662.71 298.19Q662.71 295.86 661.81 294.70Q660.90 293.54 659.08 293.54Q656.90 293.54 655.64 294.93Q654.38 296.33 654.38 298.73L654.38 308L651.67 308L651.67 291.59L654.38 291.59L654.38 294.14Q655.35 292.66 656.66 291.93Q657.97 291.20 659.68 291.20Q662.51 291.20 663.96 292.95Q665.41 294.70 665.41 298.10 M682.59 292.22L682.59 294.74Q681.45 294.11 680.30 293.80Q679.15 293.48 677.98 293.48Q675.36 293.48 673.91 295.15Q672.46 296.81 672.46 299.81Q672.46 302.81 673.91 304.48Q675.36 306.14 677.98 306.14Q679.15 306.14 680.30 305.82Q681.45 305.51 682.59 304.88L682.59 307.37Q681.46 307.90 680.26 308.16Q679.05 308.42 677.69 308.42Q673.98 308.42 671.80 306.10Q669.61 303.77 669.61 299.81Q669.61 295.80 671.82 293.50Q674.02 291.20 677.86 291.20Q679.11 291.20 680.29 291.45Q681.48 291.71 682.59 292.22 M701.31 299.12L701.31 300.44L688.92 300.44Q689.10 303.22 690.60 304.68Q692.10 306.14 694.78 306.14Q696.33 306.14 697.79 305.76Q699.25 305.38 700.68 304.62L700.68 307.17Q699.23 307.78 697.71 308.10Q696.19 308.42 694.62 308.42Q690.69 308.42 688.40 306.14Q686.11 303.85 686.11 299.96Q686.11 295.93 688.28 293.56Q690.46 291.20 694.15 291.20Q697.46 291.20 699.39 293.33Q701.31 295.46 701.31 299.12M689.01 298.35L698.62 298.33Q698.59 296.12 697.38 294.80Q696.17 293.48 694.18 293.48Q691.92 293.48 690.57 294.76Q689.21 296.03 689.01 298.35 M725.41 299.75L722.73 299.75Q719.46 299.75 718.20 300.50Q716.94 301.25 716.94 303.05Q716.94 304.48 717.89 305.33Q718.83 306.17 720.46 306.17Q722.70 306.17 724.06 304.58Q725.41 302.99 725.41 300.35L725.41 299.75M728.11 298.64L728.11 308L725.41 308L725.41 305.51Q724.49 307 723.11 307.71Q721.73 308.42 719.74 308.42Q717.22 308.42 715.73 307.01Q714.25 305.60 714.25 303.22Q714.25 300.46 716.10 299.05Q717.95 297.64 721.63 297.64L725.41 297.64L725.41 297.38Q725.41 295.52 724.19 294.50Q722.96 293.48 720.75 293.48Q719.35 293.48 718.01 293.82Q716.68 294.16 715.45 294.83L715.45 292.34Q716.93 291.77 718.32 291.48Q719.71 291.20 721.03 291.20Q724.59 291.20 726.35 293.04Q728.11 294.89 728.11 298.64 M747.29 298.10L747.29 308L744.60 308L744.60 298.19Q744.60 295.86 743.69 294.70Q742.78 293.54 740.97 293.54Q738.78 293.54 737.52 294.93Q736.26 296.33 736.26 298.73L736.26 308L733.55 308L733.55 291.59L736.26 291.59L736.26 294.14Q737.23 292.66 738.54 291.93Q739.85 291.20 741.57 291.20Q744.39 291.20 745.84 292.95Q747.29 294.70 747.29 298.10 M763.47 294.08L763.47 285.21L766.16 285.21L766.16 308L763.47 308L763.47 305.54Q762.62 307 761.32 307.71Q760.02 308.42 758.21 308.42Q755.23 308.42 753.37 306.05Q751.50 303.68 751.50 299.81Q751.50 295.94 753.37 293.57Q755.23 291.20 758.21 291.20Q760.02 291.20 761.32 291.91Q762.62 292.62 763.47 294.08M754.28 299.81Q754.28 302.79 755.51 304.48Q756.73 306.17 758.87 306.17Q761.01 306.17 762.24 304.48Q763.47 302.79 763.47 299.81Q763.47 296.84 762.24 295.15Q761.01 293.45 758.87 293.45Q756.73 293.45 755.51 295.15Q754.28 296.84 754.28 299.81 M790.74 291.34L790.76 294.11Q790.30 293.85 789.77 293.73Q789.23 293.60 788.59 293.60Q786.30 293.60 785.08 295.09Q783.86 296.57 783.86 299.36L783.86 308L781.15 308L781.15 291.59L783.86 291.59L783.86 294.14Q784.71 292.65 786.07 291.92Q787.43 291.20 789.38 291.20Q789.66 291.20 790 291.23Q790.33 291.27 790.74 291.34 M807.62 299.12L807.62 300.44L795.22 300.44Q795.40 303.22 796.90 304.68Q798.40 306.14 801.08 306.14Q802.64 306.14 804.09 305.76Q805.55 305.38 806.99 304.62L806.99 307.17Q805.54 307.78 804.01 308.10Q802.49 308.42 800.92 308.42Q797 308.42 794.70 306.14Q792.41 303.85 792.41 299.96Q792.41 295.93 794.59 293.56Q796.76 291.20 800.45 291.20Q803.76 291.20 805.69 293.33Q807.62 295.46 807.62 299.12M795.31 298.35L804.92 298.33Q804.89 296.12 803.68 294.80Q802.48 293.48 800.48 293.48Q798.23 293.48 796.87 294.76Q795.52 296.03 795.31 298.35 M824.81 294.74Q825.83 292.93 827.23 292.06Q828.64 291.20 830.54 291.20Q833.11 291.20 834.50 292.99Q835.89 294.79 835.89 298.10L835.89 308L833.18 308L833.18 298.19Q833.18 295.83 832.34 294.68Q831.51 293.54 829.79 293.54Q827.70 293.54 826.48 294.93Q825.27 296.33 825.27 298.73L825.27 308L822.56 308L822.56 298.19Q822.56 295.81 821.72 294.68Q820.89 293.54 819.15 293.54Q817.08 293.54 815.86 294.94Q814.65 296.34 814.65 298.73L814.65 308L811.94 308L811.94 291.59L814.65 291.59L814.65 294.14Q815.57 292.63 816.86 291.92Q818.15 291.20 819.92 291.20Q821.71 291.20 822.96 292.11Q824.21 293.01 824.81 294.74 M855.30 299.12L855.30 300.44L842.91 300.44Q843.08 303.22 844.58 304.68Q846.08 306.14 848.76 306.14Q850.32 306.14 851.77 305.76Q853.23 305.38 854.67 304.62L854.67 307.17Q853.22 307.78 851.69 308.10Q850.17 308.42 848.60 308.42Q844.68 308.42 842.39 306.14Q840.09 303.85 840.09 299.96Q840.09 295.93 842.27 293.56Q844.44 291.20 848.13 291.20Q851.45 291.20 853.37 293.33Q855.30 295.46 855.30 299.12M842.99 298.35L852.60 298.33Q852.57 296.12 851.36 294.80Q850.16 293.48 848.16 293.48Q845.91 293.48 844.55 294.76Q843.20 296.03 842.99 298.35 M870.52 294.08L870.52 285.21L873.21 285.21L873.21 308L870.52 308L870.52 305.54Q869.67 307 868.37 307.71Q867.08 308.42 865.26 308.42Q862.29 308.42 860.42 306.05Q858.55 303.68 858.55 299.81Q858.55 295.94 860.42 293.57Q862.29 291.20 865.26 291.20Q867.08 291.20 868.37 291.91Q869.67 292.62 870.52 294.08M861.33 299.81Q861.33 302.79 862.56 304.48Q863.78 306.17 865.92 306.17Q868.06 306.17 869.29 304.48Q870.52 302.79 870.52 299.81Q870.52 296.84 869.29 295.15Q868.06 293.45 865.92 293.45Q863.78 293.45 862.56 295.15Q861.33 296.84 861.33 299.81 M878.76 308L878.76 291.59L881.46 291.59L881.46 308L878.76 308M878.76 288.62L878.76 285.21L881.46 285.21L881.46 288.62 M897.24 299.75L894.56 299.75Q891.29 299.75 890.03 300.50Q888.77 301.25 888.77 303.05Q888.77 304.48 889.71 305.33Q890.66 306.17 892.29 306.17Q894.53 306.17 895.88 304.58Q897.24 302.99 897.24 300.35L897.24 299.75M899.93 298.64L899.93 308L897.24 308L897.24 305.51Q896.31 307 894.94 307.71Q893.56 308.42 891.57 308.42Q889.05 308.42 887.56 307.01Q886.07 305.60 886.07 303.22Q886.07 300.46 887.93 299.05Q889.78 297.64 893.46 297.64L897.24 297.64L897.24 297.38Q897.24 295.52 896.01 294.50Q894.79 293.48 892.58 293.48Q891.17 293.48 889.84 293.82Q888.51 294.16 887.28 294.83L887.28 292.34Q888.75 291.77 890.15 291.48Q891.54 291.20 892.86 291.20Q896.42 291.20 898.17 293.04Q899.93 294.89 899.93 298.64 M905.44 286.94L908.15 286.94L908.15 291.59L913.70 291.59L913.70 293.69L908.15 293.69L908.15 302.59Q908.15 304.60 908.70 305.17Q909.25 305.74 910.93 305.74L913.70 305.74L913.70 308L910.93 308Q907.81 308 906.63 306.84Q905.44 305.67 905.44 302.59L905.44 293.69L903.46 293.69L903.46 291.59L905.44 291.59 M917.25 308L917.25 291.59L919.94 291.59L919.94 308L917.25 308M917.25 288.62L917.25 285.21L919.94 285.21L919.94 288.62 M931.94 293.48Q929.77 293.48 928.51 295.18Q927.25 296.87 927.25 299.81Q927.25 302.76 928.50 304.45Q929.76 306.14 931.94 306.14Q934.09 306.14 935.35 304.44Q936.61 302.74 936.61 299.81Q936.61 296.90 935.35 295.19Q934.09 293.48 931.94 293.48M931.94 291.20Q935.45 291.20 937.46 293.48Q939.47 295.77 939.47 299.81Q939.47 303.84 937.46 306.13Q935.45 308.42 931.94 308.42Q928.41 308.42 926.41 306.13Q924.41 303.84 924.41 299.81Q924.41 295.77 926.41 293.48Q928.41 291.20 931.94 291.20 M957.57 298.10L957.57 308L954.88 308L954.88 298.19Q954.88 295.86 953.97 294.70Q953.06 293.54 951.25 293.54Q949.06 293.54 947.80 294.93Q946.54 296.33 946.54 298.73L946.54 308L943.83 308L943.83 291.59L946.54 291.59L946.54 294.14Q947.51 292.66 948.82 291.93Q950.13 291.20 951.85 291.20Q954.67 291.20 956.12 292.95Q957.57 294.70 957.57 298.10 M985.26 294.74Q986.27 292.93 987.68 292.06Q989.08 291.20 990.99 291.20Q993.55 291.20 994.94 292.99Q996.33 294.79 996.33 298.10L996.33 308L993.62 308L993.62 298.19Q993.62 295.83 992.79 294.68Q991.95 293.54 990.24 293.54Q988.14 293.54 986.93 294.93Q985.71 296.33 985.71 298.73L985.71 308L983 308L983 298.19Q983 295.81 982.17 294.68Q981.33 293.54 979.59 293.54Q977.52 293.54 976.31 294.94Q975.09 296.34 975.09 298.73L975.09 308L972.38 308L972.38 291.59L975.09 291.59L975.09 294.14Q976.02 292.63 977.30 291.92Q978.59 291.20 980.37 291.20Q982.15 291.20 983.41 292.11Q984.66 293.01 985.26 294.74 M1011.85 299.75L1009.17 299.75Q1005.90 299.75 1004.64 300.50Q1003.38 301.25 1003.38 303.05Q1003.38 304.48 1004.32 305.33Q1005.27 306.17 1006.89 306.17Q1009.14 306.17 1010.49 304.58Q1011.85 302.99 1011.85 300.35L1011.85 299.75M1014.54 298.64L1014.54 308L1011.85 308L1011.85 305.51Q1010.92 307 1009.55 307.71Q1008.17 308.42 1006.18 308.42Q1003.66 308.42 1002.17 307.01Q1000.68 305.60 1000.68 303.22Q1000.68 300.46 1002.54 299.05Q1004.39 297.64 1008.07 297.64L1011.85 297.64L1011.85 297.38Q1011.85 295.52 1010.62 294.50Q1009.40 293.48 1007.19 293.48Q1005.78 293.48 1004.45 293.82Q1003.12 294.16 1001.88 294.83L1001.88 292.34Q1003.36 291.77 1004.76 291.48Q1006.15 291.20 1007.47 291.20Q1011.03 291.20 1012.78 293.04Q1014.54 294.89 1014.54 298.64 M1033.73 298.10L1033.73 308L1031.04 308L1031.04 298.19Q1031.04 295.86 1030.13 294.70Q1029.22 293.54 1027.40 293.54Q1025.22 293.54 1023.96 294.93Q1022.70 296.33 1022.70 298.73L1022.70 308L1019.99 308L1019.99 291.59L1022.70 291.59L1022.70 294.14Q1023.67 292.66 1024.98 291.93Q1026.29 291.20 1028 291.20Q1030.83 291.20 1032.28 292.95Q1033.73 294.70 1033.73 298.10 M1049.90 294.08L1049.90 285.21L1052.60 285.21L1052.60 308L1049.90 308L1049.90 305.54Q1049.05 307 1047.76 307.71Q1046.46 308.42 1044.64 308.42Q1041.67 308.42 1039.80 306.05Q1037.93 303.68 1037.93 299.81Q1037.93 295.94 1039.80 293.57Q1041.67 291.20 1044.64 291.20Q1046.46 291.20 1047.76 291.91Q1049.05 292.62 1049.90 294.08M1040.72 299.81Q1040.72 302.79 1041.94 304.48Q1043.16 306.17 1045.30 306.17Q1047.44 306.17 1048.67 304.48Q1049.90 302.79 1049.90 299.81Q1049.90 296.84 1048.67 295.15Q1047.44 293.45 1045.30 293.45Q1043.16 293.45 1041.94 295.15Q1040.72 296.84 1040.72 299.81 M1068.29 299.75L1065.61 299.75Q1062.34 299.75 1061.08 300.50Q1059.82 301.25 1059.82 303.05Q1059.82 304.48 1060.76 305.33Q1061.71 306.17 1063.33 306.17Q1065.58 306.17 1066.93 304.58Q1068.29 302.99 1068.29 300.35L1068.29 299.75M1070.98 298.64L1070.98 308L1068.29 308L1068.29 305.51Q1067.36 307 1065.99 307.71Q1064.61 308.42 1062.62 308.42Q1060.10 308.42 1058.61 307.01Q1057.12 305.60 1057.12 303.22Q1057.12 300.46 1058.98 299.05Q1060.83 297.64 1064.51 297.64L1068.29 297.64L1068.29 297.38Q1068.29 295.52 1067.06 294.50Q1065.84 293.48 1063.63 293.48Q1062.22 293.48 1060.89 293.82Q1059.56 294.16 1058.33 294.83L1058.33 292.34Q1059.80 291.77 1061.20 291.48Q1062.59 291.20 1063.91 291.20Q1067.47 291.20 1069.22 293.04Q1070.98 294.89 1070.98 298.64 M1076.49 286.94L1079.20 286.94L1079.20 291.59L1084.75 291.59L1084.75 293.69L1079.20 293.69L1079.20 302.59Q1079.20 304.60 1079.75 305.17Q1080.30 305.74 1081.98 305.74L1084.75 305.74L1084.75 308L1081.98 308Q1078.86 308 1077.68 306.84Q1076.49 305.67 1076.49 302.59L1076.49 293.69L1074.51 293.69L1074.51 291.59L1076.49 291.59 M1102.33 299.12L1102.33 300.44L1089.94 300.44Q1090.11 303.22 1091.61 304.68Q1093.12 306.14 1095.80 306.14Q1097.35 306.14 1098.81 305.76Q1100.26 305.38 1101.70 304.62L1101.70 307.17Q1100.25 307.78 1098.73 308.10Q1097.20 308.42 1095.63 308.42Q1091.71 308.42 1089.42 306.14Q1087.12 303.85 1087.12 299.96Q1087.12 295.93 1089.30 293.56Q1091.47 291.20 1095.17 291.20Q1098.48 291.20 1100.40 293.33Q1102.33 295.46 1102.33 299.12M1090.02 298.35L1099.63 298.33Q1099.60 296.12 1098.40 294.80Q1097.19 293.48 1095.20 293.48Q1092.94 293.48 1091.58 294.76Q1090.23 296.03 1090.02 298.35" fill="#94A3B8"/>
  <path d="M478.58 325.21L481.13 325.21L481.13 327.45L478.55 327.45Q477.10 327.45 476.54 328.03Q475.98 328.62 475.98 330.14L475.98 331.59L480.42 331.59L480.42 333.69L475.98 333.69L475.98 348L473.27 348L473.27 333.69L470.69 333.69L470.69 331.59L473.27 331.59L473.27 330.45Q473.27 327.71 474.54 326.46Q475.82 325.21 478.58 325.21 M489.75 333.48Q487.58 333.48 486.32 335.18Q485.06 336.87 485.06 339.81Q485.06 342.76 486.31 344.45Q487.56 346.14 489.75 346.14Q491.90 346.14 493.16 344.44Q494.42 342.74 494.42 339.81Q494.42 336.90 493.16 335.19Q491.90 333.48 489.75 333.48M489.75 331.20Q493.26 331.20 495.27 333.48Q497.28 335.77 497.28 339.81Q497.28 343.84 495.27 346.13Q493.26 348.42 489.75 348.42Q486.22 348.42 484.22 346.13Q482.22 343.84 482.22 339.81Q482.22 335.77 484.22 333.48Q486.22 331.20 489.75 331.20 M511.24 331.34L511.25 334.11Q510.80 333.85 510.26 333.73Q509.73 333.60 509.08 333.60Q506.80 333.60 505.57 335.09Q504.35 336.57 504.35 339.36L504.35 348L501.64 348L501.64 331.59L504.35 331.59L504.35 334.14Q505.20 332.65 506.56 331.92Q507.92 331.20 509.87 331.20Q510.15 331.20 510.49 331.23Q510.83 331.27 511.24 331.34 M534.07 332.08L534.07 334.63Q532.93 334.04 531.70 333.75Q530.47 333.45 529.15 333.45Q527.14 333.45 526.14 334.07Q525.14 334.68 525.14 335.92Q525.14 336.85 525.85 337.39Q526.57 337.92 528.74 338.41L529.66 338.61Q532.53 339.23 533.74 340.35Q534.95 341.47 534.95 343.47Q534.95 345.76 533.14 347.09Q531.33 348.42 528.17 348.42Q526.85 348.42 525.42 348.17Q523.99 347.91 522.41 347.40L522.41 344.62Q523.91 345.39 525.36 345.78Q526.81 346.17 528.23 346.17Q530.13 346.17 531.16 345.52Q532.18 344.87 532.18 343.68Q532.18 342.58 531.44 341.99Q530.70 341.41 528.20 340.87L527.26 340.65Q524.76 340.12 523.64 339.03Q522.53 337.94 522.53 336.03Q522.53 333.72 524.17 332.46Q525.81 331.20 528.83 331.20Q530.32 331.20 531.64 331.42Q532.96 331.64 534.07 332.08 M545.60 333.48Q543.43 333.48 542.17 335.18Q540.91 336.87 540.91 339.81Q540.91 342.76 542.17 344.45Q543.42 346.14 545.60 346.14Q547.75 346.14 549.01 344.44Q550.27 342.74 550.27 339.81Q550.27 336.90 549.01 335.19Q547.75 333.48 545.60 333.48M545.60 331.20Q549.12 331.20 551.12 333.48Q553.13 335.77 553.13 339.81Q553.13 343.84 551.12 346.13Q549.12 348.42 545.60 348.42Q542.07 348.42 540.07 346.13Q538.07 343.84 538.07 339.81Q538.07 335.77 540.07 333.48Q542.07 331.20 545.60 331.20 M563.35 325.21L565.90 325.21L565.90 327.45L563.33 327.45Q561.88 327.45 561.31 328.03Q560.75 328.62 560.75 330.14L560.75 331.59L565.19 331.59L565.19 333.69L560.75 333.69L560.75 348L558.04 348L558.04 333.69L555.46 333.69L555.46 331.59L558.04 331.59L558.04 330.45Q558.04 327.71 559.31 326.46Q560.59 325.21 563.35 325.21 M568.12 326.94L570.83 326.94L570.83 331.59L576.38 331.59L576.38 333.69L570.83 333.69L570.83 342.59Q570.83 344.60 571.37 345.17Q571.92 345.74 573.61 345.74L576.38 345.74L576.38 348L573.61 348Q570.49 348 569.30 346.84Q568.12 345.67 568.12 342.59L568.12 333.69L566.14 333.69L566.14 331.59L568.12 331.59 M582.65 348L578.35 331.59L581.05 331.59L584.42 344.40L587.77 331.59L590.95 331.59L594.32 344.40L597.68 331.59L600.37 331.59L596.08 348L592.90 348L589.37 334.55L585.83 348 M614.59 339.75L611.91 339.75Q608.65 339.75 607.39 340.50Q606.13 341.25 606.13 343.05Q606.13 344.48 607.07 345.33Q608.02 346.17 609.64 346.17Q611.88 346.17 613.24 344.58Q614.59 342.99 614.59 340.35L614.59 339.75M617.29 338.64L617.29 348L614.59 348L614.59 345.51Q613.67 347 612.29 347.71Q610.92 348.42 608.93 348.42Q606.41 348.42 604.92 347.01Q603.43 345.60 603.43 343.22Q603.43 340.46 605.29 339.05Q607.14 337.64 610.82 337.64L614.59 337.64L614.59 337.38Q614.59 335.52 613.37 334.50Q612.15 333.48 609.94 333.48Q608.53 333.48 607.20 333.82Q605.86 334.16 604.63 334.83L604.63 332.34Q606.11 331.77 607.50 331.48Q608.90 331.20 610.21 331.20Q613.77 331.20 615.53 333.04Q617.29 334.89 617.29 338.64 M632.33 331.34L632.35 334.11Q631.89 333.85 631.36 333.73Q630.83 333.60 630.18 333.60Q627.90 333.60 626.67 335.09Q625.45 336.57 625.45 339.36L625.45 348L622.74 348L622.74 331.59L625.45 331.59L625.45 334.14Q626.30 332.65 627.66 331.92Q629.02 331.20 630.97 331.20Q631.25 331.20 631.59 331.23Q631.92 331.27 632.33 331.34 M649.21 339.12L649.21 340.44L636.82 340.44Q636.99 343.22 638.49 344.68Q640 346.14 642.68 346.14Q644.23 346.14 645.69 345.76Q647.14 345.38 648.58 344.62L648.58 347.17Q647.13 347.78 645.61 348.10Q644.08 348.42 642.51 348.42Q638.59 348.42 636.30 346.14Q634 343.85 634 339.96Q634 335.93 636.18 333.56Q638.35 331.20 642.05 331.20Q645.36 331.20 647.28 333.33Q649.21 335.46 649.21 339.12M636.90 338.35L646.51 338.33Q646.48 336.12 645.28 334.80Q644.07 333.48 642.08 333.48Q639.82 333.48 638.46 334.76Q637.11 336.03 636.90 338.35 M663.13 326.94L665.83 326.94L665.83 331.59L671.39 331.59L671.39 333.69L665.83 333.69L665.83 342.59Q665.83 344.60 666.38 345.17Q666.93 345.74 668.62 345.74L671.39 345.74L671.39 348L668.62 348Q665.50 348 664.31 346.84Q663.13 345.67 663.13 342.59L663.13 333.69L661.15 333.69L661.15 331.59L663.13 331.59 M688.57 338.10L688.57 348L685.87 348L685.87 338.19Q685.87 335.86 684.97 334.70Q684.06 333.54 682.24 333.54Q680.06 333.54 678.80 334.93Q677.54 336.33 677.54 338.73L677.54 348L674.83 348L674.83 325.21L677.54 325.21L677.54 334.14Q678.51 332.66 679.82 331.93Q681.13 331.20 682.84 331.20Q685.67 331.20 687.12 332.95Q688.57 334.70 688.57 338.10 M704.08 339.75L701.40 339.75Q698.13 339.75 696.88 340.50Q695.62 341.25 695.62 343.05Q695.62 344.48 696.56 345.33Q697.50 346.17 699.13 346.17Q701.37 346.17 702.73 344.58Q704.08 342.99 704.08 340.35L704.08 339.75M706.78 338.64L706.78 348L704.08 348L704.08 345.51Q703.16 347 701.78 347.71Q700.41 348.42 698.41 348.42Q695.89 348.42 694.41 347.01Q692.92 345.60 692.92 343.22Q692.92 340.46 694.77 339.05Q696.63 337.64 700.30 337.64L704.08 337.64L704.08 337.38Q704.08 335.52 702.86 334.50Q701.64 333.48 699.42 333.48Q698.02 333.48 696.68 333.82Q695.35 334.16 694.12 334.83L694.12 332.34Q695.60 331.77 696.99 331.48Q698.38 331.20 699.70 331.20Q703.26 331.20 705.02 333.04Q706.78 334.89 706.78 338.64 M712.29 326.94L715 326.94L715 331.59L720.55 331.59L720.55 333.69L715 333.69L715 342.59Q715 344.60 715.54 345.17Q716.09 345.74 717.78 345.74L720.55 345.74L720.55 348L717.78 348Q714.66 348 713.47 346.84Q712.29 345.67 712.29 342.59L712.29 333.69L710.31 333.69L710.31 331.59L712.29 331.59 M747.27 338.10L747.27 348L744.57 348L744.57 338.19Q744.57 335.86 743.66 334.70Q742.75 333.54 740.94 333.54Q738.75 333.54 737.50 334.93Q736.24 336.33 736.24 338.73L736.24 348L733.53 348L733.53 331.59L736.24 331.59L736.24 334.14Q737.20 332.66 738.51 331.93Q739.82 331.20 741.54 331.20Q744.37 331.20 745.82 332.95Q747.27 334.70 747.27 338.10 M759 333.48Q756.83 333.48 755.57 335.18Q754.31 336.87 754.31 339.81Q754.31 342.76 755.56 344.45Q756.82 346.14 759 346.14Q761.15 346.14 762.41 344.44Q763.67 342.74 763.67 339.81Q763.67 336.90 762.41 335.19Q761.15 333.48 759 333.48M759 331.20Q762.51 331.20 764.52 333.48Q766.53 335.77 766.53 339.81Q766.53 343.84 764.52 346.13Q762.51 348.42 759 348.42Q755.47 348.42 753.47 346.13Q751.47 343.84 751.47 339.81Q751.47 335.77 753.47 333.48Q755.47 331.20 759 331.20 M794.17 338.10L794.17 348L791.47 348L791.47 338.19Q791.47 335.86 790.57 334.70Q789.66 333.54 787.84 333.54Q785.66 333.54 784.40 334.93Q783.14 336.33 783.14 338.73L783.14 348L780.43 348L780.43 325.21L783.14 325.21L783.14 334.14Q784.11 332.66 785.42 331.93Q786.73 331.20 788.44 331.20Q791.27 331.20 792.72 332.95Q794.17 334.70 794.17 338.10 M799.27 341.53L799.27 331.59L801.96 331.59L801.96 341.42Q801.96 343.75 802.87 344.92Q803.78 346.08 805.60 346.08Q807.78 346.08 809.05 344.69Q810.31 343.30 810.31 340.90L810.31 331.59L813.01 331.59L813.01 348L810.31 348L810.31 345.48Q809.33 346.97 808.03 347.70Q806.74 348.42 805.02 348.42Q802.20 348.42 800.73 346.67Q799.27 344.91 799.27 341.53M806.05 331.20 M831.33 334.74Q832.34 332.93 833.75 332.06Q835.16 331.20 837.06 331.20Q839.62 331.20 841.02 332.99Q842.41 334.79 842.41 338.10L842.41 348L839.70 348L839.70 338.19Q839.70 335.83 838.86 334.68Q838.03 333.54 836.31 333.54Q834.22 333.54 833 334.93Q831.79 336.33 831.79 338.73L831.79 348L829.08 348L829.08 338.19Q829.08 335.81 828.24 334.68Q827.41 333.54 825.66 333.54Q823.60 333.54 822.38 334.94Q821.17 336.34 821.17 338.73L821.17 348L818.46 348L818.46 331.59L821.17 331.59L821.17 334.14Q822.09 332.63 823.38 331.92Q824.67 331.20 826.44 331.20Q828.23 331.20 829.48 332.11Q830.73 333.01 831.33 334.74 M857.92 339.75L855.24 339.75Q851.97 339.75 850.71 340.50Q849.45 341.25 849.45 343.05Q849.45 344.48 850.40 345.33Q851.34 346.17 852.97 346.17Q855.21 346.17 856.56 344.58Q857.92 342.99 857.92 340.35L857.92 339.75M860.62 338.64L860.62 348L857.92 348L857.92 345.51Q857 347 855.62 347.71Q854.24 348.42 852.25 348.42Q849.73 348.42 848.24 347.01Q846.76 345.60 846.76 343.22Q846.76 340.46 848.61 339.05Q850.46 337.64 854.14 337.64L857.92 337.64L857.92 337.38Q857.92 335.52 856.70 334.50Q855.47 333.48 853.26 333.48Q851.86 333.48 850.52 333.82Q849.19 334.16 847.96 334.83L847.96 332.34Q849.44 331.77 850.83 331.48Q852.22 331.20 853.54 331.20Q857.10 331.20 858.86 333.04Q860.62 334.89 860.62 338.64 M879.80 338.10L879.80 348L877.11 348L877.11 338.19Q877.11 335.86 876.20 334.70Q875.29 333.54 873.48 333.54Q871.29 333.54 870.03 334.93Q868.77 336.33 868.77 338.73L868.77 348L866.06 348L866.06 331.59L868.77 331.59L868.77 334.14Q869.74 332.66 871.05 331.93Q872.36 331.20 874.08 331.20Q876.90 331.20 878.35 332.95Q879.80 334.70 879.80 338.10 M904.21 331.34L904.22 334.11Q903.77 333.85 903.23 333.73Q902.70 333.60 902.06 333.60Q899.77 333.60 898.55 335.09Q897.32 336.57 897.32 339.36L897.32 348L894.61 348L894.61 331.59L897.32 331.59L897.32 334.14Q898.17 332.65 899.54 331.92Q900.90 331.20 902.85 331.20Q903.13 331.20 903.46 331.23Q903.80 331.27 904.21 331.34 M921.08 339.12L921.08 340.44L908.69 340.44Q908.87 343.22 910.37 344.68Q911.87 346.14 914.55 346.14Q916.10 346.14 917.56 345.76Q919.02 345.38 920.45 344.62L920.45 347.17Q919 347.78 917.48 348.10Q915.96 348.42 914.39 348.42Q910.46 348.42 908.17 346.14Q905.88 343.85 905.88 339.96Q905.88 335.93 908.05 333.56Q910.23 331.20 913.92 331.20Q917.23 331.20 919.16 333.33Q921.08 335.46 921.08 339.12M908.78 338.35L918.39 338.33Q918.36 336.12 917.15 334.80Q915.94 333.48 913.95 333.48Q911.69 333.48 910.34 334.76Q908.98 336.03 908.78 338.35 M929.73 348L923.57 331.59L926.43 331.59L931.56 345.36L936.68 331.59L939.54 331.59L933.39 348 M943.26 348L943.26 331.59L945.96 331.59L945.96 348L943.26 348M943.26 328.62L943.26 325.21L945.96 325.21L945.96 328.62 M965.63 339.12L965.63 340.44L953.24 340.44Q953.41 343.22 954.91 344.68Q956.42 346.14 959.10 346.14Q960.65 346.14 962.11 345.76Q963.56 345.38 965 344.62L965 347.17Q963.55 347.78 962.03 348.10Q960.50 348.42 958.94 348.42Q955.01 348.42 952.72 346.14Q950.42 343.85 950.42 339.96Q950.42 335.93 952.60 333.56Q954.78 331.20 958.47 331.20Q961.78 331.20 963.70 333.33Q965.63 335.46 965.63 339.12M953.33 338.35L962.93 338.33Q962.91 336.12 961.70 334.80Q960.49 333.48 958.50 333.48Q956.24 333.48 954.89 334.76Q953.53 336.03 953.33 338.35 M972.78 348L968.49 331.59L971.18 331.59L974.55 344.40L977.91 331.59L981.08 331.59L984.45 344.40L987.81 331.59L990.50 331.59L986.21 348L983.03 348L979.50 334.55L975.96 348 M1005.05 332.08L1005.05 334.63Q1003.91 334.04 1002.68 333.75Q1001.45 333.45 1000.13 333.45Q998.12 333.45 997.12 334.07Q996.11 334.68 996.11 335.92Q996.11 336.85 996.83 337.39Q997.55 337.92 999.72 338.41L1000.64 338.61Q1003.51 339.23 1004.72 340.35Q1005.93 341.47 1005.93 343.47Q1005.93 345.76 1004.12 347.09Q1002.31 348.42 999.15 348.42Q997.83 348.42 996.40 348.17Q994.97 347.91 993.39 347.40L993.39 344.62Q994.88 345.39 996.33 345.78Q997.78 346.17 999.20 346.17Q1001.11 346.17 1002.13 345.52Q1003.16 344.87 1003.16 343.68Q1003.16 342.58 1002.42 341.99Q1001.68 341.41 999.17 340.87L998.24 340.65Q995.73 340.12 994.62 339.03Q993.51 337.94 993.51 336.03Q993.51 333.72 995.15 332.46Q996.79 331.20 999.80 331.20Q1001.30 331.20 1002.62 331.42Q1003.94 331.64 1005.05 332.08 M1010.60 348L1010.60 344.28L1013.69 344.28L1013.69 348" fill="#94A3B8"/>
  <rect x="470" y="408" width="203" height="46" rx="23" fill="#132B26" stroke="#10B981" stroke-width="2"/>
  <path d="M499.05 433L499.05 429.88L503.04 429.88L503.04 418.57L498.95 419.42L498.95 416.35L503.02 415.50L507.30 415.50L507.30 429.88L511.29 429.88L511.29 433 M515.75 433L515.75 429.88L519.74 429.88L519.74 418.57L515.65 419.42L515.65 416.35L519.71 415.50L524 415.50L524 429.88L527.99 429.88L527.99 433 M532.04 432.61L532.04 429.38Q533.12 429.88 534.11 430.13Q535.09 430.39 536.05 430.39Q538.07 430.39 539.19 429.27Q540.32 428.15 540.52 425.95Q539.72 426.53 538.82 426.82Q537.91 427.12 536.86 427.12Q534.18 427.12 532.53 425.55Q530.88 423.99 530.88 421.43Q530.88 418.61 532.72 416.91Q534.55 415.21 537.63 415.21Q541.05 415.21 542.93 417.52Q544.80 419.83 544.80 424.05Q544.80 428.38 542.61 430.86Q540.42 433.34 536.60 433.34Q535.37 433.34 534.25 433.16Q533.12 432.98 532.04 432.61M537.61 424.19Q538.79 424.19 539.39 423.42Q539.99 422.65 539.99 421.12Q539.99 419.59 539.39 418.82Q538.79 418.05 537.61 418.05Q536.43 418.05 535.83 418.82Q535.23 419.59 535.23 421.12Q535.23 422.65 535.83 423.42Q536.43 424.19 537.61 424.19 M567.32 420.29L567.32 423.71Q566.46 423.12 565.60 422.84Q564.74 422.56 563.81 422.56Q562.05 422.56 561.08 423.58Q560.10 424.61 560.10 426.45Q560.10 428.29 561.08 429.31Q562.05 430.34 563.81 430.34Q564.80 430.34 565.68 430.05Q566.57 429.75 567.32 429.18L567.32 432.61Q566.33 432.98 565.32 433.16Q564.30 433.34 563.29 433.34Q559.73 433.34 557.73 431.52Q555.73 429.70 555.73 426.45Q555.73 423.20 557.73 421.38Q559.73 419.56 563.29 419.56Q564.32 419.56 565.32 419.74Q566.32 419.92 567.32 420.29 M584.13 425.01L584.13 433L579.91 433L579.91 431.70L579.91 426.91Q579.91 425.18 579.84 424.54Q579.76 423.89 579.57 423.59Q579.33 423.18 578.91 422.95Q578.48 422.72 577.95 422.72Q576.63 422.72 575.88 423.74Q575.13 424.75 575.13 426.54L575.13 433L570.94 433L570.94 414.77L575.13 414.77L575.13 421.80Q576.08 420.65 577.15 420.10Q578.21 419.56 579.50 419.56Q581.78 419.56 582.96 420.95Q584.13 422.35 584.13 425.01 M601.13 426.40L601.13 427.60L591.32 427.60Q591.47 429.07 592.38 429.81Q593.30 430.55 594.94 430.55Q596.26 430.55 597.65 430.16Q599.04 429.77 600.50 428.97L600.50 432.20Q599.02 432.77 597.53 433.05Q596.04 433.34 594.55 433.34Q590.99 433.34 589.01 431.53Q587.04 429.72 587.04 426.45Q587.04 423.24 588.98 421.40Q590.92 419.56 594.32 419.56Q597.41 419.56 599.27 421.42Q601.13 423.29 601.13 426.40M591.36 425.01L596.81 425.01Q596.81 423.81 596.12 423.08Q595.42 422.35 594.29 422.35Q593.07 422.35 592.31 423.03Q591.55 423.72 591.36 425.01 M614.91 420.29L614.91 423.71Q614.05 423.12 613.19 422.84Q612.33 422.56 611.40 422.56Q609.64 422.56 608.67 423.58Q607.69 424.61 607.69 426.45Q607.69 428.29 608.67 429.31Q609.64 430.34 611.40 430.34Q612.39 430.34 613.27 430.05Q614.16 429.75 614.91 429.18L614.91 432.61Q613.92 432.98 612.91 433.16Q611.89 433.34 610.88 433.34Q607.32 433.34 605.32 431.52Q603.32 429.70 603.32 426.45Q603.32 423.20 605.32 421.38Q607.32 419.56 610.88 419.56Q611.91 419.56 612.91 419.74Q613.91 419.92 614.91 420.29 M618.53 433L618.53 414.77L622.72 414.77L622.72 424.69L627.55 419.88L632.43 419.88L626.02 425.90L632.93 433L627.84 433L622.72 427.53L622.72 433 M644.74 420.29L644.74 423.47Q643.39 422.91 642.14 422.63Q640.89 422.35 639.77 422.35Q638.58 422.35 638 422.65Q637.42 422.95 637.42 423.57Q637.42 424.07 637.86 424.34Q638.30 424.61 639.43 424.74L640.17 424.84Q643.39 425.25 644.51 426.19Q645.62 427.13 645.62 429.13Q645.62 431.23 644.07 432.29Q642.53 433.34 639.46 433.34Q638.16 433.34 636.77 433.13Q635.38 432.93 633.91 432.52L633.91 429.33Q635.17 429.94 636.49 430.25Q637.80 430.55 639.16 430.55Q640.39 430.55 641.02 430.21Q641.64 429.87 641.64 429.20Q641.64 428.64 641.21 428.37Q640.78 428.09 639.50 427.94L638.77 427.84Q635.96 427.49 634.84 426.54Q633.71 425.59 633.71 423.66Q633.71 421.57 635.14 420.57Q636.57 419.56 639.53 419.56Q640.69 419.56 641.96 419.73Q643.24 419.91 644.74 420.29" fill="#34D399"/>
  <rect x="689" y="408" width="190" height="46" rx="23" fill="#1B2537" stroke="#3E5068" stroke-width="2"/>
  <path d="M725.62 426.40L721.88 429.68L729.58 429.68L729.58 433L716.86 433L716.86 429.68L723.25 424.05Q724.11 423.27 724.52 422.54Q724.93 421.80 724.93 421Q724.93 419.77 724.10 419.02Q723.27 418.27 721.90 418.27Q720.85 418.27 719.59 418.72Q718.34 419.17 716.91 420.06L716.91 416.22Q718.43 415.71 719.92 415.45Q721.41 415.19 722.84 415.19Q725.98 415.19 727.72 416.57Q729.46 417.95 729.46 420.43Q729.46 421.86 728.72 423.09Q727.98 424.33 725.62 426.40 M745.54 433L740.38 419.88L744.58 419.88L747.85 428.95L751.11 419.88L755.31 419.88L750.14 433 M763.93 422.56Q762.53 422.56 761.80 423.56Q761.07 424.56 761.07 426.45Q761.07 428.34 761.80 429.34Q762.53 430.34 763.93 430.34Q765.30 430.34 766.02 429.34Q766.75 428.34 766.75 426.45Q766.75 424.56 766.02 423.56Q765.30 422.56 763.93 422.56M763.93 419.56Q767.31 419.56 769.22 421.39Q771.12 423.21 771.12 426.45Q771.12 429.68 769.22 431.51Q767.31 433.34 763.93 433.34Q760.53 433.34 758.61 431.51Q756.70 429.68 756.70 426.45Q756.70 423.21 758.61 421.39Q760.53 419.56 763.93 419.56 M774.17 433L774.17 414.77L778.36 414.77L778.36 433 M782.25 427.89L782.25 419.88L786.47 419.88L786.47 421.19Q786.47 422.25 786.46 423.87Q786.45 425.48 786.45 426.02Q786.45 427.60 786.53 428.29Q786.61 428.99 786.81 429.31Q787.07 429.72 787.49 429.94Q787.90 430.16 788.44 430.16Q789.75 430.16 790.50 429.16Q791.25 428.15 791.25 426.36L791.25 419.88L795.45 419.88L795.45 433L791.25 433L791.25 431.10Q790.30 432.25 789.24 432.79Q788.18 433.34 786.91 433.34Q784.63 433.34 783.44 431.95Q782.25 430.55 782.25 427.89 M811.64 422.05Q812.44 420.84 813.54 420.20Q814.63 419.56 815.95 419.56Q818.21 419.56 819.39 420.95Q820.57 422.35 820.57 425.01L820.57 433L816.36 433L816.36 426.16Q816.37 426 816.37 425.84Q816.38 425.68 816.38 425.37Q816.38 423.98 815.97 423.35Q815.56 422.72 814.64 422.72Q813.45 422.72 812.80 423.71Q812.15 424.69 812.13 426.55L812.13 433L807.91 433L807.91 426.16Q807.91 423.98 807.53 423.35Q807.16 422.72 806.20 422.72Q804.99 422.72 804.33 423.71Q803.68 424.70 803.68 426.54L803.68 433L799.46 433L799.46 419.88L803.68 419.88L803.68 421.80Q804.45 420.68 805.45 420.12Q806.45 419.56 807.66 419.56Q809.02 419.56 810.06 420.21Q811.11 420.87 811.64 422.05 M837.59 426.40L837.59 427.60L827.78 427.60Q827.93 429.07 828.85 429.81Q829.76 430.55 831.40 430.55Q832.73 430.55 834.12 430.16Q835.50 429.77 836.97 428.97L836.97 432.20Q835.48 432.77 833.99 433.05Q832.50 433.34 831.02 433.34Q827.45 433.34 825.48 431.53Q823.50 429.72 823.50 426.45Q823.50 423.24 825.44 421.40Q827.38 419.56 830.78 419.56Q833.88 419.56 835.73 421.42Q837.59 423.29 837.59 426.40M827.83 425.01L833.28 425.01Q833.28 423.81 832.58 423.08Q831.88 422.35 830.76 422.35Q829.54 422.35 828.78 423.03Q828.02 423.72 827.83 425.01 M851.02 420.29L851.02 423.47Q849.67 422.91 848.42 422.63Q847.16 422.35 846.05 422.35Q844.86 422.35 844.28 422.65Q843.70 422.95 843.70 423.57Q843.70 424.07 844.13 424.34Q844.57 424.61 845.71 424.74L846.45 424.84Q849.67 425.25 850.79 426.19Q851.90 427.13 851.90 429.13Q851.90 431.23 850.35 432.29Q848.80 433.34 845.73 433.34Q844.43 433.34 843.04 433.13Q841.66 432.93 840.19 432.52L840.19 429.33Q841.45 429.94 842.76 430.25Q844.08 430.55 845.44 430.55Q846.67 430.55 847.29 430.21Q847.91 429.87 847.91 429.20Q847.91 428.64 847.49 428.37Q847.06 428.09 845.78 427.94L845.04 427.84Q842.24 427.49 841.12 426.54Q839.99 425.59 839.99 423.66Q839.99 421.57 841.42 420.57Q842.85 419.56 845.80 419.56Q846.96 419.56 848.24 419.73Q849.52 419.91 851.02 420.29" fill="#CBD5E1"/>
  <rect x="895" y="408" width="161" height="46" rx="23" fill="#1B2537" stroke="#3E5068" stroke-width="2"/>
  <path d="M932.16 423.57Q933.93 424.02 934.85 425.15Q935.77 426.29 935.77 428.03Q935.77 430.63 933.78 431.99Q931.79 433.34 927.97 433.34Q926.62 433.34 925.27 433.12Q923.91 432.91 922.59 432.47L922.59 428.99Q923.86 429.63 925.10 429.95Q926.35 430.27 927.56 430.27Q929.35 430.27 930.31 429.65Q931.26 429.03 931.26 427.87Q931.26 426.67 930.28 426.06Q929.30 425.44 927.39 425.44L925.59 425.44L925.59 422.54L927.49 422.54Q929.19 422.54 930.02 422Q930.85 421.47 930.85 420.38Q930.85 419.37 930.04 418.82Q929.23 418.27 927.76 418.27Q926.67 418.27 925.55 418.52Q924.44 418.76 923.34 419.24L923.34 415.94Q924.68 415.56 925.99 415.38Q927.30 415.19 928.57 415.19Q931.98 415.19 933.67 416.31Q935.36 417.43 935.36 419.68Q935.36 421.21 934.55 422.19Q933.75 423.17 932.16 423.57 M948.44 416.15L952.64 416.15L952.64 419.88L956.96 419.88L956.96 422.88L952.64 422.88L952.64 428.44Q952.64 429.36 953 429.68Q953.36 430 954.44 430L956.60 430L956.60 433L953 433Q950.52 433 949.48 431.96Q948.44 430.93 948.44 428.44L948.44 422.88L946.36 422.88L946.36 419.88L948.44 419.88 M969.27 419.65L969.28 423.45Q968.73 423.19 968.18 423.07Q967.64 422.95 967.09 422.95Q965.47 422.95 964.60 423.98Q963.72 425.02 963.72 426.95L963.72 433L959.53 433L959.53 419.88L963.72 419.88L963.72 422.03Q964.53 420.74 965.58 420.15Q966.63 419.56 968.09 419.56Q968.30 419.56 968.55 419.58Q968.80 419.59 969.27 419.65 M979.43 427.09L977.25 427.09Q975.93 427.09 975.27 427.54Q974.61 427.98 974.61 428.85Q974.61 429.65 975.14 430.10Q975.68 430.55 976.63 430.55Q977.81 430.55 978.62 429.70Q979.43 428.85 979.43 427.57L979.43 427.09M983.66 425.51L983.66 433L979.43 433L979.43 431.05Q978.58 432.25 977.53 432.79Q976.47 433.34 974.96 433.34Q972.92 433.34 971.65 432.15Q970.38 430.96 970.38 429.06Q970.38 426.75 971.97 425.68Q973.55 424.60 976.95 424.60L979.43 424.60L979.43 424.27Q979.43 423.27 978.64 422.81Q977.86 422.35 976.19 422.35Q974.84 422.35 973.68 422.62Q972.52 422.89 971.53 423.43L971.53 420.23Q972.88 419.90 974.23 419.73Q975.59 419.56 976.95 419.56Q980.50 419.56 982.08 420.96Q983.66 422.36 983.66 425.51 M998.16 420.29L998.16 423.71Q997.31 423.12 996.45 422.84Q995.59 422.56 994.66 422.56Q992.90 422.56 991.92 423.58Q990.95 424.61 990.95 426.45Q990.95 428.29 991.92 429.31Q992.90 430.34 994.66 430.34Q995.64 430.34 996.53 430.05Q997.41 429.75 998.16 429.18L998.16 432.61Q997.18 432.98 996.17 433.16Q995.15 433.34 994.13 433.34Q990.58 433.34 988.58 431.52Q986.57 429.70 986.57 426.45Q986.57 423.20 988.58 421.38Q990.58 419.56 994.13 419.56Q995.16 419.56 996.17 419.74Q997.17 419.92 998.16 420.29 M1001.79 433L1001.79 414.77L1005.98 414.77L1005.98 424.69L1010.81 419.88L1015.68 419.88L1009.27 425.90L1016.19 433L1011.10 433L1005.98 427.53L1005.98 433 M1028 420.29L1028 423.47Q1026.65 422.91 1025.40 422.63Q1024.14 422.35 1023.03 422.35Q1021.84 422.35 1021.26 422.65Q1020.68 422.95 1020.68 423.57Q1020.68 424.07 1021.12 424.34Q1021.55 424.61 1022.69 424.74L1023.43 424.84Q1026.65 425.25 1027.77 426.19Q1028.88 427.13 1028.88 429.13Q1028.88 431.23 1027.33 432.29Q1025.79 433.34 1022.71 433.34Q1021.41 433.34 1020.03 433.13Q1018.64 432.93 1017.17 432.52L1017.17 429.33Q1018.43 429.94 1019.74 430.25Q1021.06 430.55 1022.42 430.55Q1023.65 430.55 1024.27 430.21Q1024.89 429.87 1024.89 429.20Q1024.89 428.64 1024.47 428.37Q1024.04 428.09 1022.76 427.94L1022.02 427.84Q1019.22 427.49 1018.10 426.54Q1016.97 425.59 1016.97 423.66Q1016.97 421.57 1018.40 420.57Q1019.83 419.56 1022.79 419.56Q1023.95 419.56 1025.22 419.73Q1026.50 419.91 1028 420.29" fill="#CBD5E1"/>
  <path d="M472 501.70L472 491.23L474.28 491.23L474.28 501.42Q474.28 504.11 475.26 505.30Q476.23 506.48 478.42 506.48Q480.60 506.48 481.58 505.30Q482.56 504.11 482.56 501.42L482.56 491.23L484.84 491.23L484.84 501.70Q484.84 504.98 483.21 506.65Q481.59 508.33 478.42 508.33Q475.24 508.33 473.62 506.65Q472 504.98 472 501.70 M499.46 500.41L499.46 508L497.39 508L497.39 500.48Q497.39 498.69 496.69 497.80Q496 496.92 494.61 496.92Q492.93 496.92 491.97 497.98Q491 499.05 491 500.89L491 508L488.92 508L488.92 495.42L491 495.42L491 497.38Q491.74 496.24 492.75 495.68Q493.75 495.12 495.07 495.12Q497.23 495.12 498.35 496.46Q499.46 497.80 499.46 500.41 M503.50 508L503.50 490.53L505.58 490.53L505.58 500.85L511.74 495.42L514.38 495.42L507.71 501.31L514.66 508L511.97 508L505.58 501.86L505.58 508 M527.35 500.41L527.35 508L525.29 508L525.29 500.48Q525.29 498.69 524.59 497.80Q523.90 496.92 522.50 496.92Q520.83 496.92 519.86 497.98Q518.90 499.05 518.90 500.89L518.90 508L516.82 508L516.82 495.42L518.90 495.42L518.90 497.38Q519.64 496.24 520.64 495.68Q521.65 495.12 522.96 495.12Q525.13 495.12 526.24 496.46Q527.35 497.80 527.35 500.41 M536.35 496.87Q534.69 496.87 533.72 498.17Q532.76 499.46 532.76 501.72Q532.76 503.98 533.72 505.28Q534.68 506.57 536.35 506.57Q538 506.57 538.97 505.27Q539.93 503.97 539.93 501.72Q539.93 499.49 538.97 498.18Q538 496.87 536.35 496.87M536.35 495.12Q539.04 495.12 540.58 496.87Q542.12 498.62 542.12 501.72Q542.12 504.81 540.58 506.57Q539.04 508.33 536.35 508.33Q533.64 508.33 532.11 506.57Q530.58 504.81 530.58 501.72Q530.58 498.62 532.11 496.87Q533.64 495.12 536.35 495.12 M547.64 508L544.35 495.42L546.41 495.42L549 505.24L551.57 495.42L554 495.42L556.59 505.24L559.16 495.42L561.23 495.42L557.93 508L555.50 508L552.79 497.69L550.07 508 M574.81 500.41L574.81 508L572.75 508L572.75 500.48Q572.75 498.69 572.05 497.80Q571.35 496.92 569.96 496.92Q568.29 496.92 567.32 497.98Q566.36 499.05 566.36 500.89L566.36 508L564.28 508L564.28 495.42L566.36 495.42L566.36 497.38Q567.10 496.24 568.10 495.68Q569.11 495.12 570.42 495.12Q572.59 495.12 573.70 496.46Q574.81 497.80 574.81 500.41 M595.28 501.72Q595.28 499.44 594.34 498.15Q593.40 496.85 591.76 496.85Q590.12 496.85 589.18 498.15Q588.25 499.44 588.25 501.72Q588.25 504 589.18 505.30Q590.12 506.60 591.76 506.60Q593.40 506.60 594.34 505.30Q595.28 504 595.28 501.72M588.25 490.53L588.25 497.33Q588.90 496.21 589.89 495.66Q590.88 495.12 592.27 495.12Q594.56 495.12 595.99 496.94Q597.42 498.76 597.42 501.72Q597.42 504.69 595.99 506.51Q594.56 508.33 592.27 508.33Q590.88 508.33 589.89 507.78Q588.90 507.24 588.25 506.11L588.25 508L586.17 508L586.17 490.53 M600.85 508L600.85 490.53L602.91 490.53L602.91 508 M612.11 496.87Q610.45 496.87 609.48 498.17Q608.52 499.46 608.52 501.72Q608.52 503.98 609.48 505.28Q610.44 506.57 612.11 506.57Q613.76 506.57 614.73 505.27Q615.69 503.97 615.69 501.72Q615.69 499.49 614.73 498.18Q613.76 496.87 612.11 496.87M612.11 495.12Q614.81 495.12 616.34 496.87Q617.88 498.62 617.88 501.72Q617.88 504.81 616.34 506.57Q614.81 508.33 612.11 508.33Q609.40 508.33 607.87 506.57Q606.34 504.81 606.34 501.72Q606.34 498.62 607.87 496.87Q609.40 495.12 612.11 495.12 M630.36 495.90L630.36 497.84Q629.48 497.35 628.60 497.11Q627.72 496.87 626.82 496.87Q624.81 496.87 623.70 498.15Q622.59 499.42 622.59 501.72Q622.59 504.02 623.70 505.30Q624.81 506.57 626.82 506.57Q627.72 506.57 628.60 506.33Q629.48 506.09 630.36 505.61L630.36 507.52Q629.50 507.92 628.57 508.12Q627.64 508.33 626.60 508.33Q623.76 508.33 622.08 506.54Q620.41 504.75 620.41 501.72Q620.41 498.65 622.10 496.88Q623.79 495.12 626.73 495.12Q627.69 495.12 628.60 495.32Q629.51 495.51 630.36 495.90 M633.88 508L633.88 490.53L635.95 490.53L635.95 500.85L642.12 495.42L644.76 495.42L638.09 501.31L645.04 508L642.34 508L635.95 501.86L635.95 508 M655.29 495.79L655.29 497.75Q654.42 497.30 653.47 497.07Q652.53 496.85 651.52 496.85Q649.98 496.85 649.21 497.32Q648.44 497.79 648.44 498.73Q648.44 499.45 648.99 499.86Q649.54 500.27 651.20 500.64L651.91 500.80Q654.11 501.27 655.04 502.13Q655.97 502.99 655.97 504.53Q655.97 506.28 654.58 507.30Q653.19 508.33 650.77 508.33Q649.75 508.33 648.66 508.13Q647.56 507.93 646.35 507.54L646.35 505.41Q647.50 506 648.61 506.30Q649.72 506.60 650.81 506.60Q652.27 506.60 653.06 506.10Q653.84 505.60 653.84 504.69Q653.84 503.84 653.28 503.40Q652.71 502.95 650.79 502.53L650.07 502.36Q648.15 501.96 647.30 501.12Q646.44 500.28 646.44 498.82Q646.44 497.05 647.70 496.08Q648.96 495.12 651.27 495.12Q652.42 495.12 653.43 495.29Q654.44 495.46 655.29 495.79 M659.55 508L659.55 505.15L661.92 505.15L661.92 508 M682.66 501.81L679.57 493.47L676.49 501.81L682.66 501.81M671.89 508L678.29 491.23L680.86 491.23L687.25 508L684.90 508L683.37 503.70L675.81 503.70L674.28 508 M701.34 490.53L703.29 490.53L703.29 492.24L701.31 492.24Q700.20 492.24 699.77 492.69Q699.34 493.14 699.34 494.31L699.34 495.42L702.74 495.42L702.74 497.03L699.34 497.03L699.34 508L697.26 508L697.26 497.03L695.28 497.03L695.28 495.42L697.26 495.42L697.26 494.55Q697.26 492.45 698.24 491.49Q699.21 490.53 701.34 490.53 M705.02 508L705.02 495.42L707.09 495.42L707.09 508L705.02 508M705.02 493.14L705.02 490.53L707.09 490.53L707.09 493.14 M719.43 495.42L721.87 495.42L717.32 501.54L722.10 508L719.66 508L716 503.06L712.34 508L709.91 508L714.79 501.42L710.32 495.42L712.76 495.42L716.09 499.90 M732.33 508L732.33 495.42L734.40 495.42L734.40 508L732.33 508M732.33 493.14L732.33 490.53L734.40 490.53L734.40 493.14 M746.74 495.79L746.74 497.75Q745.87 497.30 744.92 497.07Q743.98 496.85 742.97 496.85Q741.43 496.85 740.66 497.32Q739.89 497.79 739.89 498.73Q739.89 499.45 740.44 499.86Q740.99 500.27 742.65 500.64L743.36 500.80Q745.56 501.27 746.49 502.13Q747.42 502.99 747.42 504.53Q747.42 506.28 746.03 507.30Q744.64 508.33 742.22 508.33Q741.20 508.33 740.11 508.13Q739.01 507.93 737.80 507.54L737.80 505.41Q738.95 506 740.06 506.30Q741.17 506.60 742.26 506.60Q743.72 506.60 744.51 506.10Q745.29 505.60 745.29 504.69Q745.29 503.84 744.73 503.40Q744.16 502.95 742.24 502.53L741.52 502.36Q739.60 501.96 738.75 501.12Q737.89 500.28 737.89 498.82Q737.89 497.05 739.15 496.08Q740.41 495.12 742.72 495.12Q743.87 495.12 744.88 495.29Q745.89 495.46 746.74 495.79 M768.47 500.41L768.47 508L766.41 508L766.41 500.48Q766.41 498.69 765.71 497.80Q765.01 496.92 763.62 496.92Q761.95 496.92 760.98 497.98Q760.02 499.05 760.02 500.89L760.02 508L757.94 508L757.94 495.42L760.02 495.42L760.02 497.38Q760.76 496.24 761.76 495.68Q762.77 495.12 764.08 495.12Q766.25 495.12 767.36 496.46Q768.47 497.80 768.47 500.41 M777.47 496.87Q775.81 496.87 774.84 498.17Q773.87 499.46 773.87 501.72Q773.87 503.98 774.83 505.28Q775.79 506.57 777.47 506.57Q779.12 506.57 780.08 505.27Q781.05 503.97 781.05 501.72Q781.05 499.49 780.08 498.18Q779.12 496.87 777.47 496.87M777.47 495.12Q780.16 495.12 781.70 496.87Q783.24 498.62 783.24 501.72Q783.24 504.81 781.70 506.57Q780.16 508.33 777.47 508.33Q774.76 508.33 773.23 506.57Q771.70 504.81 771.70 501.72Q771.70 498.62 773.23 496.87Q774.76 495.12 777.47 495.12 M786.63 491.85L788.71 491.85L788.71 495.42L792.97 495.42L792.97 497.03L788.71 497.03L788.71 503.86Q788.71 505.39 789.13 505.83Q789.55 506.27 790.84 506.27L792.97 506.27L792.97 508L790.84 508Q788.45 508 787.54 507.11Q786.63 506.21 786.63 503.86L786.63 497.03L785.12 497.03L785.12 495.42L786.63 495.42 M810.77 501.68L808.71 501.68Q806.21 501.68 805.24 502.25Q804.27 502.82 804.27 504.20Q804.27 505.30 805 505.95Q805.72 506.60 806.97 506.60Q808.69 506.60 809.73 505.38Q810.77 504.16 810.77 502.14L810.77 501.68M812.83 500.82L812.83 508L810.77 508L810.77 506.09Q810.06 507.24 809 507.78Q807.95 508.33 806.42 508.33Q804.49 508.33 803.35 507.24Q802.21 506.16 802.21 504.34Q802.21 502.22 803.63 501.14Q805.05 500.06 807.87 500.06L810.77 500.06L810.77 499.86Q810.77 498.43 809.83 497.65Q808.89 496.87 807.19 496.87Q806.12 496.87 805.09 497.13Q804.07 497.39 803.13 497.90L803.13 495.99Q804.26 495.56 805.33 495.34Q806.40 495.12 807.41 495.12Q810.14 495.12 811.48 496.53Q812.83 497.95 812.83 500.82 M833.45 495.90L833.45 497.84Q832.58 497.35 831.69 497.11Q830.81 496.87 829.91 496.87Q827.90 496.87 826.79 498.15Q825.68 499.42 825.68 501.72Q825.68 504.02 826.79 505.30Q827.90 506.57 829.91 506.57Q830.81 506.57 831.69 506.33Q832.58 506.09 833.45 505.61L833.45 507.52Q832.59 507.92 831.66 508.12Q830.73 508.33 829.69 508.33Q826.85 508.33 825.17 506.54Q823.50 504.75 823.50 501.72Q823.50 498.65 825.19 496.88Q826.88 495.12 829.82 495.12Q830.78 495.12 831.69 495.32Q832.60 495.51 833.45 495.90 M837.05 508L837.05 490.53L839.11 490.53L839.11 508 M848.31 496.87Q846.65 496.87 845.68 498.17Q844.72 499.46 844.72 501.72Q844.72 503.98 845.68 505.28Q846.64 506.57 848.31 506.57Q849.96 506.57 850.93 505.27Q851.89 503.97 851.89 501.72Q851.89 499.49 850.93 498.18Q849.96 496.87 848.31 496.87M848.31 495.12Q851 495.12 852.54 496.87Q854.08 498.62 854.08 501.72Q854.08 504.81 852.54 506.57Q851 508.33 848.31 508.33Q845.60 508.33 844.07 506.57Q842.54 504.81 842.54 501.72Q842.54 498.62 844.07 496.87Q845.60 495.12 848.31 495.12 M865.53 495.79L865.53 497.75Q864.65 497.30 863.71 497.07Q862.76 496.85 861.75 496.85Q860.21 496.85 859.44 497.32Q858.68 497.79 858.68 498.73Q858.68 499.45 859.23 499.86Q859.78 500.27 861.44 500.64L862.15 500.80Q864.35 501.27 865.27 502.13Q866.20 502.99 866.20 504.53Q866.20 506.28 864.81 507.30Q863.43 508.33 861 508.33Q859.99 508.33 858.89 508.13Q857.80 507.93 856.59 507.54L856.59 505.41Q857.73 506 858.84 506.30Q859.96 506.60 861.04 506.60Q862.50 506.60 863.29 506.10Q864.08 505.60 864.08 504.69Q864.08 503.84 863.51 503.40Q862.94 502.95 861.02 502.53L860.30 502.36Q858.38 501.96 857.53 501.12Q856.68 500.28 856.68 498.82Q856.68 497.05 857.93 496.08Q859.19 495.12 861.51 495.12Q862.65 495.12 863.66 495.29Q864.67 495.46 865.53 495.79 M869.28 503.04L869.28 495.42L871.34 495.42L871.34 502.96Q871.34 504.74 872.04 505.64Q872.74 506.53 874.13 506.53Q875.80 506.53 876.77 505.46Q877.74 504.40 877.74 502.55L877.74 495.42L879.81 495.42L879.81 508L877.74 508L877.74 506.07Q876.99 507.21 876 507.77Q875 508.33 873.69 508.33Q871.52 508.33 870.40 506.98Q869.28 505.63 869.28 503.04M874.48 495.12 M891.34 495.23L891.36 497.35Q891.01 497.15 890.60 497.06Q890.19 496.96 889.69 496.96Q887.94 496.96 887 498.10Q886.07 499.24 886.07 501.37L886.07 508L883.99 508L883.99 495.42L886.07 495.42L886.07 497.38Q886.72 496.23 887.76 495.67Q888.81 495.12 890.30 495.12Q890.51 495.12 890.77 495.15Q891.03 495.17 891.34 495.23 M904.28 501.19L904.28 502.21L894.78 502.21Q894.92 504.34 896.07 505.46Q897.22 506.57 899.27 506.57Q900.46 506.57 901.58 506.28Q902.70 505.99 903.80 505.41L903.80 507.36Q902.69 507.83 901.52 508.08Q900.35 508.33 899.15 508.33Q896.14 508.33 894.38 506.57Q892.63 504.82 892.63 501.83Q892.63 498.75 894.29 496.93Q895.96 495.12 898.79 495.12Q901.33 495.12 902.81 496.75Q904.28 498.39 904.28 501.19M894.85 500.60L902.22 500.59Q902.19 498.89 901.27 497.88Q900.34 496.87 898.81 496.87Q897.08 496.87 896.04 497.85Q895.01 498.82 894.85 500.60 M907.97 508L907.97 505.15L910.34 505.15L910.34 508" fill="#64748B"/>
</svg>
